<svg width="100" height="100" xmlns="http://www.w3.org/2000/svg">
  <defs>
    <pattern id="tech-pattern" patternUnits="userSpaceOnUse" width="100" height="100">
      <circle cx="5" cy="5" r="1" fill="rgba(255, 255, 255, 0.07)"/>
      <circle cx="15" cy="15" r="0.5" fill="rgba(255, 255, 255, 0.05)"/>
      <circle cx="25" cy="5" r="0.7" fill="rgba(255, 255, 255, 0.05)"/>
      <circle cx="35" cy="15" r="0.4" fill="rgba(255, 255, 255, 0.07)"/>
      <circle cx="45" cy="5" r="0.8" fill="rgba(255, 255, 255, 0.05)"/>
      <circle cx="55" cy="15" r="0.6" fill="rgba(255, 255, 255, 0.07)"/>
      <circle cx="65" cy="5" r="0.5" fill="rgba(255, 255, 255, 0.05)"/>
      <circle cx="75" cy="15" r="0.7" fill="rgba(255, 255, 255, 0.07)"/>
      <circle cx="85" cy="5" r="0.4" fill="rgba(255, 255, 255, 0.05)"/>
      <circle cx="95" cy="15" r="0.8" fill="rgba(255, 255, 255, 0.07)"/>
      
      <circle cx="5" cy="25" r="0.6" fill="rgba(255, 255, 255, 0.07)"/>
      <circle cx="15" cy="35" r="0.7" fill="rgba(255, 255, 255, 0.05)"/>
      <circle cx="25" cy="25" r="0.4" fill="rgba(255, 255, 255, 0.07)"/>
      <circle cx="35" cy="35" r="0.8" fill="rgba(255, 255, 255, 0.05)"/>
      <circle cx="45" cy="25" r="0.5" fill="rgba(255, 255, 255, 0.07)"/>
      <circle cx="55" cy="35" r="0.7" fill="rgba(255, 255, 255, 0.05)"/>
      <circle cx="65" cy="25" r="0.4" fill="rgba(255, 255, 255, 0.07)"/>
      <circle cx="75" cy="35" r="0.8" fill="rgba(255, 255, 255, 0.05)"/>
      <circle cx="85" cy="25" r="0.5" fill="rgba(255, 255, 255, 0.07)"/>
      <circle cx="95" cy="35" r="0.7" fill="rgba(255, 255, 255, 0.05)"/>
      
      <path d="M0 40 L100 40" stroke="rgba(255, 255, 255, 0.03)" stroke-width="0.5" stroke-dasharray="5,5"/>
      <path d="M0 60 L100 60" stroke="rgba(255, 255, 255, 0.03)" stroke-width="0.5" stroke-dasharray="5,5"/>
      <path d="M0 80 L100 80" stroke="rgba(255, 255, 255, 0.03)" stroke-width="0.5" stroke-dasharray="5,5"/>
      
      <path d="M40 0 L40 100" stroke="rgba(255, 255, 255, 0.03)" stroke-width="0.5" stroke-dasharray="5,5"/>
      <path d="M60 0 L60 100" stroke="rgba(255, 255, 255, 0.03)" stroke-width="0.5" stroke-dasharray="5,5"/>
      <path d="M80 0 L80 100" stroke="rgba(255, 255, 255, 0.03)" stroke-width="0.5" stroke-dasharray="5,5"/>
      
      <circle cx="5" cy="45" r="0.4" fill="rgba(255, 255, 255, 0.05)"/>
      <circle cx="15" cy="55" r="0.8" fill="rgba(255, 255, 255, 0.07)"/>
      <circle cx="25" cy="45" r="0.5" fill="rgba(255, 255, 255, 0.05)"/>
      <circle cx="35" cy="55" r="0.7" fill="rgba(255, 255, 255, 0.07)"/>
      <circle cx="45" cy="45" r="0.4" fill="rgba(255, 255, 255, 0.05)"/>
      <circle cx="55" cy="55" r="0.8" fill="rgba(255, 255, 255, 0.07)"/>
      <circle cx="65" cy="45" r="0.6" fill="rgba(255, 255, 255, 0.05)"/>
      <circle cx="75" cy="55" r="0.5" fill="rgba(255, 255, 255, 0.07)"/>
      <circle cx="85" cy="45" r="0.7" fill="rgba(255, 255, 255, 0.05)"/>
      <circle cx="95" cy="55" r="0.4" fill="rgba(255, 255, 255, 0.07)"/>
      
      <circle cx="5" cy="65" r="0.8" fill="rgba(255, 255, 255, 0.07)"/>
      <circle cx="15" cy="75" r="0.5" fill="rgba(255, 255, 255, 0.05)"/>
      <circle cx="25" cy="65" r="0.7" fill="rgba(255, 255, 255, 0.07)"/>
      <circle cx="35" cy="75" r="0.4" fill="rgba(255, 255, 255, 0.05)"/>
      <circle cx="45" cy="65" r="0.8" fill="rgba(255, 255, 255, 0.07)"/>
      <circle cx="55" cy="75" r="0.6" fill="rgba(255, 255, 255, 0.05)"/>
      <circle cx="65" cy="65" r="0.5" fill="rgba(255, 255, 255, 0.07)"/>
      <circle cx="75" cy="75" r="0.7" fill="rgba(255, 255, 255, 0.05)"/>
      <circle cx="85" cy="65" r="0.4" fill="rgba(255, 255, 255, 0.07)"/>
      <circle cx="95" cy="75" r="0.8" fill="rgba(255, 255, 255, 0.05)"/>
      
      <circle cx="5" cy="85" r="0.5" fill="rgba(255, 255, 255, 0.05)"/>
      <circle cx="15" cy="95" r="0.7" fill="rgba(255, 255, 255, 0.07)"/>
      <circle cx="25" cy="85" r="0.4" fill="rgba(255, 255, 255, 0.05)"/>
      <circle cx="35" cy="95" r="0.8" fill="rgba(255, 255, 255, 0.07)"/>
      <circle cx="45" cy="85" r="0.6" fill="rgba(255, 255, 255, 0.05)"/>
      <circle cx="55" cy="95" r="0.5" fill="rgba(255, 255, 255, 0.07)"/>
      <circle cx="65" cy="85" r="0.7" fill="rgba(255, 255, 255, 0.05)"/>
      <circle cx="75" cy="95" r="0.4" fill="rgba(255, 255, 255, 0.07)"/>
      <circle cx="85" cy="85" r="0.8" fill="rgba(255, 255, 255, 0.05)"/>
      <circle cx="95" cy="95" r="0.5" fill="rgba(255, 255, 255, 0.07)"/>
    </pattern>
  </defs>
  
  <rect width="100%" height="100%" fill="url(#tech-pattern)" />
</svg> 